# xmcd CD database file
#
# Track frame offsets:
#	150
#	13871
#	28723
#	43755
#	55521
#	70185
#	82834
#	98815
#	113525
#	132409
#
# Disc length: 1917 seconds
#
# Revision: 0
# Processed by: cddbd v1.5.2PL0 Copyright (c) Steve Scherf et al.
# Submitted via: CDex 1.70beta2
#
DISCID=77077b0a
DTITLE=WoC - Women of Country - D1
DYEAR=1900
DGENRE=Country
TTITLE0=Tanya Tucker - If Your Heart Ain't Busy Tonight
TTITLE1=Juice Newton - Queen hearts
TTITLE2=Lacy J. Dalton - Everybody Makes Mistakes
TTITLE3=Lynn Anderson - How Can I Unlove You
TTITLE4=Janie Fricke - Let's Stop Talking About It
TTITLE5=Holly Dunn - You Really Had Me Going
TTITLE6=Pam Tillis - Shake Your Sugar Tree
TTITLE7=Tanya Tucker - Just Another Love
TTITLE8=Juice Newton - You Want Me Want To Make You Mine
TTITLE9=Lynn Anderson - You're My Man
EXTD=
EXTT0=
EXTT1=
EXTT2=
EXTT3=
EXTT4=
EXTT5=
EXTT6=
EXTT7=
EXTT8=
EXTT9=
PLAYORDER=
